<svg xmlns="http://www.w3.org/2000/svg" xmlns:xlink="http://www.w3.org/1999/xlink" width="1080" zoomAndPan="magnify" viewBox="0 0 810 809.999993" height="1080" preserveAspectRatio="xMidYMid meet" version="1.0"><defs><g/><clipPath id="cacb582aa1"><path d="M 624 212 L 682.230469 212 L 682.230469 231 L 624 231 Z M 624 212 " clip-rule="nonzero"/></clipPath><clipPath id="d8950939dc"><path d="M 495 44.371094 L 514 44.371094 L 514 103 L 495 103 Z M 495 44.371094 " clip-rule="nonzero"/></clipPath><clipPath id="adb1db4b34"><path d="M 267 555 L 331 555 L 331 637.621094 L 267 637.621094 Z M 267 555 " clip-rule="nonzero"/></clipPath><clipPath id="51e617b0d3"><path d="M 376 555 L 440 555 L 440 637.621094 L 376 637.621094 Z M 376 555 " clip-rule="nonzero"/></clipPath><clipPath id="0b262d3cc3"><rect x="0" width="481" y="0" height="127"/></clipPath></defs><path fill="#ffffff" d="M 612.277344 221.664062 C 612.277344 162.355469 564.058594 114.105469 504.789062 114.105469 C 452.554688 114.105469 408.496094 151.03125 399.074219 202.195312 C 379.980469 183.703125 354.140625 172.730469 326.691406 172.730469 C 272.375 172.730469 227.617188 214.394531 222.769531 267.433594 C 169.664062 272.347656 128.003906 317.039062 128.003906 371.421875 C 128.003906 428.972656 174.78125 475.816406 232.394531 475.816406 L 475.375 475.816406 C 532.515625 475.34375 579.027344 428.566406 579.027344 371.421875 C 579.027344 350.121094 572.4375 330.007812 561.101562 313.179688 C 593.148438 293.410156 612.277344 259.210938 612.277344 221.664062 Z M 415.539062 221.664062 C 415.539062 220.359375 415.53125 219.054688 415.671875 217.574219 C 417.765625 169.859375 456.910156 132.484375 504.789062 132.484375 C 553.964844 132.484375 593.96875 172.488281 593.96875 221.664062 C 593.96875 252.953125 577.191406 282.351562 550.183594 298.394531 C 549.953125 298.53125 549.800781 298.726562 549.585938 298.882812 C 538.386719 287.265625 524.566406 278.167969 508.828125 272.75 C 503.644531 241.25 476.316406 217.558594 443.742188 217.558594 C 434.183594 217.558594 424.894531 219.644531 416.277344 223.617188 C 416.019531 223.179688 415.738281 222.785156 415.472656 222.359375 C 415.484375 222.125 415.539062 221.90625 415.539062 221.664062 Z M 475.308594 455.625 L 232.394531 455.625 C 232.328125 455.625 232.328125 455.625 232.261719 455.625 C 185.886719 455.554688 148.195312 417.796875 148.195312 371.421875 C 148.195312 324.980469 185.953125 287.152344 232.394531 287.152344 C 243.570312 287.152344 254.40625 289.308594 264.636719 293.546875 C 269.816406 295.703125 275.742188 293.277344 277.828125 288.09375 C 279.980469 282.980469 277.558594 277.058594 272.375 274.902344 C 263.019531 271 253.125 268.574219 243.03125 267.5 C 247.808594 225.566406 283.484375 192.921875 326.695312 192.921875 C 356.714844 192.921875 384.445312 209.078125 399.382812 234.71875 C 392.855469 240.644531 387.539062 247.910156 383.769531 255.988281 C 381.480469 261.105469 383.703125 267.09375 388.75 269.382812 C 393.796875 271.738281 399.789062 269.519531 402.144531 264.46875 C 403.355469 261.710938 404.902344 259.152344 406.71875 256.730469 C 409.210938 253.164062 412.308594 250 415.804688 247.308594 C 416.546875 246.769531 417.21875 246.234375 417.960938 245.761719 C 425.632812 240.507812 434.519531 237.75 443.738281 237.75 C 468.035156 237.75 488.09375 256.730469 489.441406 280.960938 C 489.710938 285.335938 492.671875 289.039062 496.84375 290.183594 C 510.375 293.882812 522.421875 300.816406 532.25 310.035156 C 535.34375 312.929688 538.171875 316.027344 540.796875 319.390625 C 552.171875 333.863281 558.832031 352.035156 558.832031 371.421875 C 558.835938 417.460938 521.34375 455.289062 475.308594 455.625 Z M 475.308594 455.625 " fill-opacity="1" fill-rule="nonzero"/><g clip-path="url(#cacb582aa1)"><path fill="#ffffff" d="M 672.898438 212.5 L 633.25 212.5 C 628.199219 212.5 624.085938 216.609375 624.085938 221.664062 C 624.085938 226.714844 628.199219 230.824219 633.25 230.824219 L 672.898438 230.824219 C 677.953125 230.824219 682.0625 226.714844 682.0625 221.664062 C 682.0625 216.609375 677.953125 212.5 672.898438 212.5 Z M 672.898438 212.5 " fill-opacity="1" fill-rule="nonzero"/></g><g clip-path="url(#d8950939dc)"><path fill="#ffffff" d="M 504.773438 102.34375 C 509.824219 102.34375 513.933594 98.230469 513.933594 93.179688 L 513.933594 53.53125 C 513.933594 48.480469 509.824219 44.371094 504.773438 44.371094 C 499.722656 44.371094 495.609375 48.480469 495.609375 53.53125 L 495.609375 93.179688 C 495.609375 98.230469 499.722656 102.34375 504.773438 102.34375 Z M 504.773438 102.34375 " fill-opacity="1" fill-rule="nonzero"/></g><path fill="#ffffff" d="M 595.621094 139.976562 C 598.0625 139.976562 600.363281 139.023438 602.097656 137.289062 L 630.132812 109.253906 C 631.867188 107.519531 632.820312 105.21875 632.820312 102.777344 C 632.820312 100.328125 631.867188 98.027344 630.132812 96.292969 C 626.671875 92.832031 620.640625 92.832031 617.179688 96.292969 L 589.140625 124.332031 C 585.570312 127.902344 585.570312 133.71875 589.140625 137.289062 C 590.875 139.023438 593.175781 139.976562 595.621094 139.976562 Z M 595.621094 139.976562 " fill-opacity="1" fill-rule="nonzero"/><path fill="#ffffff" d="M 602.097656 306.03125 C 598.632812 302.570312 592.605469 302.570312 589.140625 306.027344 C 587.410156 307.761719 586.457031 310.0625 586.457031 312.507812 C 586.457031 314.957031 587.410156 317.257812 589.140625 318.988281 L 617.175781 347.019531 C 618.902344 348.753906 621.203125 349.707031 623.65625 349.707031 C 626.109375 349.707031 628.410156 348.753906 630.132812 347.027344 C 631.867188 345.292969 632.820312 342.992188 632.820312 340.542969 C 632.820312 338.097656 631.867188 335.796875 630.132812 334.066406 Z M 602.097656 306.03125 " fill-opacity="1" fill-rule="nonzero"/><path fill="#ffffff" d="M 407.445312 137.292969 C 409.179688 139.023438 411.484375 139.976562 413.921875 139.976562 C 416.367188 139.976562 418.664062 139.023438 420.402344 137.289062 C 422.132812 135.558594 423.085938 133.257812 423.085938 130.8125 C 423.085938 128.363281 422.132812 126.066406 420.402344 124.332031 L 392.363281 96.292969 C 388.898438 92.832031 382.875 92.832031 379.40625 96.292969 C 377.671875 98.027344 376.71875 100.328125 376.71875 102.777344 C 376.71875 105.21875 377.671875 107.519531 379.40625 109.253906 Z M 407.445312 137.292969 " fill-opacity="1" fill-rule="nonzero"/><path fill="#ffffff" d="M 245.019531 569.046875 C 227.613281 569.046875 213.453125 554.886719 213.453125 537.480469 C 213.453125 522.125 235.421875 494.707031 239.824219 489.367188 C 242.382812 486.269531 247.652344 486.261719 250.210938 489.367188 C 254.613281 494.707031 276.585938 522.125 276.585938 537.480469 C 276.585938 554.886719 262.421875 569.046875 245.019531 569.046875 Z M 245.023438 504.539062 C 236.300781 516.132812 226.917969 531.023438 226.917969 537.484375 C 226.917969 547.464844 235.039062 555.585938 245.019531 555.585938 C 255.003906 555.585938 263.125 547.464844 263.125 537.484375 C 263.125 531.015625 253.742188 516.125 245.023438 504.539062 Z M 245.023438 504.539062 " fill-opacity="1" fill-rule="nonzero"/><path fill="#ffffff" d="M 353.480469 569.046875 C 336.078125 569.046875 321.914062 554.886719 321.914062 537.480469 C 321.914062 522.125 343.886719 494.707031 348.289062 489.367188 C 350.847656 486.265625 356.117188 486.265625 358.675781 489.367188 C 363.078125 494.707031 385.050781 522.125 385.050781 537.480469 C 385.050781 554.886719 370.886719 569.046875 353.480469 569.046875 Z M 353.480469 504.539062 C 344.757812 516.132812 335.375 531.023438 335.375 537.484375 C 335.375 547.464844 343.496094 555.585938 353.480469 555.585938 C 363.464844 555.585938 371.585938 547.464844 371.585938 537.484375 C 371.585938 531.015625 362.203125 516.125 353.480469 504.539062 Z M 353.480469 504.539062 " fill-opacity="1" fill-rule="nonzero"/><path fill="#ffffff" d="M 461.945312 569.046875 C 444.539062 569.046875 430.378906 554.886719 430.378906 537.480469 C 430.378906 522.125 452.347656 494.707031 456.753906 489.367188 C 459.308594 486.265625 464.582031 486.265625 467.136719 489.367188 C 471.542969 494.707031 493.511719 522.125 493.511719 537.480469 C 493.511719 554.886719 479.351562 569.046875 461.945312 569.046875 Z M 461.945312 504.539062 C 453.222656 516.132812 443.839844 531.023438 443.839844 537.484375 C 443.839844 547.464844 451.960938 555.585938 461.945312 555.585938 C 471.929688 555.585938 480.050781 547.464844 480.050781 537.484375 C 480.050781 531.015625 470.667969 516.125 461.945312 504.539062 Z M 461.945312 504.539062 " fill-opacity="1" fill-rule="nonzero"/><g clip-path="url(#adb1db4b34)"><path fill="#ffffff" d="M 299.25 637.714844 C 281.847656 637.714844 267.6875 623.550781 267.6875 606.148438 C 267.6875 590.789062 289.65625 563.371094 294.058594 558.03125 C 296.617188 554.929688 301.886719 554.929688 304.445312 558.03125 C 308.851562 563.375 330.820312 590.789062 330.820312 606.148438 C 330.816406 623.550781 316.65625 637.714844 299.25 637.714844 Z M 299.25 573.207031 C 290.53125 584.792969 281.148438 599.691406 281.148438 606.148438 C 281.148438 616.132812 289.269531 624.253906 299.25 624.253906 C 309.234375 624.253906 317.355469 616.132812 317.355469 606.148438 C 317.355469 599.6875 307.972656 584.792969 299.25 573.207031 Z M 299.25 573.207031 " fill-opacity="1" fill-rule="nonzero"/></g><g clip-path="url(#51e617b0d3)"><path fill="#ffffff" d="M 407.714844 637.714844 C 390.308594 637.714844 376.148438 623.550781 376.148438 606.148438 C 376.148438 590.789062 398.117188 563.371094 402.523438 558.03125 C 405.082031 554.929688 410.351562 554.929688 412.910156 558.03125 C 417.3125 563.375 439.28125 590.789062 439.28125 606.148438 C 439.28125 623.550781 425.121094 637.714844 407.714844 637.714844 Z M 407.714844 573.207031 C 398.992188 584.792969 389.609375 599.691406 389.609375 606.148438 C 389.609375 616.132812 397.730469 624.253906 407.714844 624.253906 C 417.699219 624.253906 425.820312 616.132812 425.820312 606.148438 C 425.820312 599.6875 416.4375 584.792969 407.714844 573.207031 Z M 407.714844 573.207031 " fill-opacity="1" fill-rule="nonzero"/></g><g transform="matrix(1, 0, 0, 1, 167, 664)"><g clip-path="url(#0b262d3cc3)"><g fill="#ffffff" fill-opacity="1"><g transform="translate(0.929967, 99.412772)"><g><path d="M 49.578125 -63.65625 L 15 -63.65625 L 15 -38.609375 L 48.546875 -38.609375 L 48.546875 -31.78125 L 15 -31.78125 L 15 0 L 7.765625 0 L 7.765625 -70.375 L 49.578125 -70.375 Z M 49.578125 -63.65625 "/></g></g></g><g fill="#ffffff" fill-opacity="1"><g transform="translate(52.578619, 99.412772)"><g><path d="M 45.015625 -22.984375 C 45.015625 -27.535156 43.394531 -31.429688 40.15625 -34.671875 C 36.914062 -37.910156 33.019531 -39.53125 28.46875 -39.53125 C 23.90625 -39.53125 20.003906 -37.910156 16.765625 -34.671875 C 13.523438 -31.429688 11.90625 -27.535156 11.90625 -22.984375 C 11.90625 -18.492188 13.523438 -14.628906 16.765625 -11.390625 C 20.003906 -8.140625 23.90625 -6.515625 28.46875 -6.515625 C 33.019531 -6.515625 36.914062 -8.140625 40.15625 -11.390625 C 43.394531 -14.628906 45.015625 -18.492188 45.015625 -22.984375 Z M 52.265625 -22.984375 C 52.265625 -16.359375 49.953125 -10.765625 45.328125 -6.203125 C 40.566406 -1.585938 34.945312 0.71875 28.46875 0.71875 C 21.976562 0.71875 16.390625 -1.585938 11.703125 -6.203125 C 7.003906 -10.765625 4.65625 -16.359375 4.65625 -22.984375 C 4.65625 -29.535156 7.003906 -35.15625 11.703125 -39.84375 C 16.316406 -44.46875 21.90625 -46.78125 28.46875 -46.78125 C 35.019531 -46.78125 40.640625 -44.46875 45.328125 -39.84375 C 49.953125 -35.15625 52.265625 -29.535156 52.265625 -22.984375 Z M 52.265625 -22.984375 "/></g></g></g><g fill="#ffffff" fill-opacity="1"><g transform="translate(109.50602, 99.412772)"><g><path d="M 31.15625 -36.125 C 29.5 -37.644531 27.703125 -38.40625 25.765625 -38.40625 C 23.910156 -38.40625 22.328125 -37.882812 21.015625 -36.84375 C 19.628906 -35.738281 18.488281 -34.425781 17.59375 -32.90625 C 15.863281 -29.875 15 -26.492188 15 -22.765625 L 15 0 L 7.765625 0 L 7.765625 -45.546875 L 15 -45.546875 L 15 -36.125 L 15.3125 -37.984375 C 17.726562 -43.640625 21.488281 -46.46875 26.59375 -46.46875 C 28.1875 -46.46875 29.707031 -46.160156 31.15625 -45.546875 Z M 31.15625 -36.125 "/></g></g></g><g fill="#ffffff" fill-opacity="1"><g transform="translate(141.695855, 99.412772)"><g><path d="M 52.265625 -23.8125 L 52.265625 -19.96875 L 12.21875 -19.96875 C 12.90625 -16.039062 14.800781 -12.832031 17.90625 -10.34375 C 21.082031 -7.789062 24.601562 -6.515625 28.46875 -6.515625 C 31.082031 -6.515625 33.597656 -7.140625 36.015625 -8.390625 C 38.359375 -9.554688 40.328125 -11.207031 41.921875 -13.34375 L 50.203125 -13.34375 C 48.265625 -9 45.363281 -5.585938 41.5 -3.109375 C 37.570312 -0.554688 33.601562 0.71875 29.59375 0.71875 C 25.53125 0.71875 22.082031 0.0976562 19.25 -1.140625 C 16.351562 -2.378906 13.835938 -4.066406 11.703125 -6.203125 C 7.003906 -10.765625 4.65625 -16.359375 4.65625 -22.984375 C 4.65625 -29.535156 7.003906 -35.15625 11.703125 -39.84375 C 16.316406 -44.46875 21.90625 -46.78125 28.46875 -46.78125 C 34.8125 -46.78125 40.363281 -44.535156 45.125 -40.046875 C 49.882812 -35.492188 52.265625 -30.082031 52.265625 -23.8125 Z M 44.609375 -26.1875 C 43.773438 -30.050781 41.84375 -33.257812 38.8125 -35.8125 C 35.78125 -38.289062 32.332031 -39.53125 28.46875 -39.53125 C 22.53125 -39.53125 17.867188 -36.875 14.484375 -31.5625 C 13.453125 -29.90625 12.726562 -28.113281 12.3125 -26.1875 Z M 44.609375 -26.1875 "/></g></g></g><g fill="#ffffff" fill-opacity="1"><g transform="translate(198.105718, 99.412772)"><g><path d="M 72.34375 -21.53125 C 69.71875 -14.769531 65.441406 -9.351562 59.515625 -5.28125 C 53.515625 -1.070312 46.925781 1.03125 39.75 1.03125 C 30.019531 1.03125 21.703125 -2.554688 14.796875 -9.734375 C 8.035156 -16.765625 4.65625 -25.21875 4.65625 -35.09375 C 4.65625 -39.988281 5.550781 -44.644531 7.34375 -49.0625 C 9.144531 -53.40625 11.628906 -57.234375 14.796875 -60.546875 C 21.703125 -67.722656 30.019531 -71.3125 39.75 -71.3125 C 46.925781 -71.3125 53.476562 -69.273438 59.40625 -65.203125 C 65.34375 -61.066406 69.625 -55.648438 72.25 -48.953125 L 64.265625 -48.953125 C 60.472656 -55.921875 54.816406 -60.546875 47.296875 -62.828125 C 44.816406 -63.515625 41.953125 -63.859375 38.703125 -63.859375 C 35.460938 -63.859375 32.148438 -63.097656 28.765625 -61.578125 C 25.390625 -59.992188 22.457031 -57.890625 19.96875 -55.265625 C 14.59375 -49.679688 11.90625 -42.957031 11.90625 -35.09375 C 11.90625 -27.289062 14.59375 -20.59375 19.96875 -15 C 25.425781 -9.28125 32.019531 -6.421875 39.75 -6.421875 C 44.988281 -6.421875 49.816406 -7.800781 54.234375 -10.5625 C 58.578125 -13.320312 61.957031 -16.976562 64.375 -21.53125 Z M 72.34375 -21.53125 "/></g></g></g><g fill="#ffffff" fill-opacity="1"><g transform="translate(273.560383, 99.412772)"><g><path d="M 43.984375 -22.765625 C 43.984375 -27.179688 42.46875 -31.046875 39.4375 -34.359375 C 36.332031 -37.671875 32.5 -39.328125 27.9375 -39.328125 C 23.382812 -39.328125 19.59375 -37.671875 16.5625 -34.359375 C 13.457031 -31.046875 11.90625 -27.179688 11.90625 -22.765625 C 11.90625 -18.347656 13.457031 -14.484375 16.5625 -11.171875 C 19.59375 -7.859375 23.382812 -6.203125 27.9375 -6.203125 C 32.5 -6.203125 36.332031 -7.859375 39.4375 -11.171875 C 42.46875 -14.484375 43.984375 -18.347656 43.984375 -22.765625 Z M 51.234375 0 L 43.984375 0 L 43.984375 -7.765625 C 43.566406 -7.210938 43.15625 -6.691406 42.75 -6.203125 C 38.394531 -1.378906 33.082031 1.03125 26.8125 1.03125 C 20.53125 1.03125 15.25 -1.378906 10.96875 -6.203125 C 6.757812 -10.898438 4.65625 -16.421875 4.65625 -22.765625 C 4.65625 -29.117188 6.757812 -34.640625 10.96875 -39.328125 C 15.25 -44.160156 20.53125 -46.578125 26.8125 -46.578125 C 33.082031 -46.578125 38.394531 -44.160156 42.75 -39.328125 C 43.15625 -38.847656 43.566406 -38.332031 43.984375 -37.78125 L 43.984375 -45.546875 L 51.234375 -45.546875 Z M 51.234375 0 "/></g></g></g><g fill="#ffffff" fill-opacity="1"><g transform="translate(332.557858, 99.412772)"><g><path d="M 14.390625 -6.515625 C 16.179688 -5.273438 18.523438 -4.65625 21.421875 -4.65625 C 28.046875 -4.65625 31.359375 -7.140625 31.359375 -12.109375 C 31.359375 -15.003906 28.976562 -17.210938 24.21875 -18.734375 C 22.21875 -19.421875 20.078125 -20.039062 17.796875 -20.59375 C 15.453125 -21.144531 13.28125 -21.867188 11.28125 -22.765625 C 8.9375 -23.867188 7.175781 -25.25 6 -26.90625 C 4.832031 -28.5625 4.25 -30.53125 4.25 -32.8125 C 4.25 -37.363281 5.832031 -40.78125 9 -43.0625 C 12.175781 -45.40625 15.972656 -46.578125 20.390625 -46.578125 C 24.804688 -46.578125 28.460938 -45.679688 31.359375 -43.890625 C 34.253906 -42.085938 36.222656 -38.878906 37.265625 -34.265625 L 29.5 -34.265625 C 28.664062 -36.816406 27.457031 -38.503906 25.875 -39.328125 C 24.351562 -40.160156 22.457031 -40.578125 20.1875 -40.578125 C 17.90625 -40.578125 15.972656 -40.09375 14.390625 -39.125 C 12.734375 -38.09375 11.90625 -36.570312 11.90625 -34.5625 C 11.90625 -32.5 12.59375 -30.984375 13.96875 -30.015625 C 15.28125 -29.117188 16.9375 -28.328125 18.9375 -27.640625 C 20.9375 -27.015625 23.113281 -26.460938 25.46875 -25.984375 C 27.738281 -25.429688 29.910156 -24.671875 31.984375 -23.703125 C 36.671875 -21.492188 39.015625 -17.941406 39.015625 -13.046875 C 39.015625 -8.140625 37.253906 -4.515625 33.734375 -2.171875 C 31.941406 -0.992188 29.976562 -0.0976562 27.84375 0.515625 C 25.769531 1.066406 23.492188 1.34375 21.015625 1.34375 C 10.453125 1.34375 4.378906 -3.347656 2.796875 -12.734375 L 10.453125 -12.734375 C 11.210938 -9.765625 12.523438 -7.691406 14.390625 -6.515625 Z M 14.390625 -6.515625 "/></g></g></g><g fill="#ffffff" fill-opacity="1"><g transform="translate(374.166591, 99.412772)"><g><path d="M 2.0625 -38.8125 L 2.0625 -45.546875 L 13.453125 -45.546875 L 13.453125 -63.234375 L 20.703125 -63.234375 L 20.703125 -45.546875 L 31.984375 -45.546875 L 31.984375 -38.8125 L 20.703125 -38.8125 L 20.703125 0 L 13.453125 0 L 13.453125 -38.8125 Z M 2.0625 -38.8125 "/></g></g></g><g fill="#ffffff" fill-opacity="1"><g transform="translate(408.219531, 99.412772)"><g><path d="M 15 0 L 7.765625 0 L 7.765625 -77.625 L 15 -77.625 Z M 15 0 "/></g></g></g><g fill="#ffffff" fill-opacity="1"><g transform="translate(430.990468, 99.412772)"><g><path d="M 13.5625 25.875 L 4.765625 25.875 L 20.078125 -7.453125 L 1.03125 -45.546875 L 9.3125 -45.546875 L 23.90625 -15 L 36.953125 -45.546875 L 45.015625 -45.546875 Z M 13.5625 25.875 "/></g></g></g></g></g></svg>